<svg width="20" height="20" viewBox="0 0 20 20" fill="none" xmlns="http://www.w3.org/2000/svg">
<path d="M15.9163 10.0003C15.9163 6.73273 13.2678 4.08349 10.0002 4.08331C8.63699 4.08331 7.38156 4.54496 6.3811 5.31964L14.679 13.6194C15.4541 12.6189 15.9162 11.3639 15.9163 10.0003ZM4.08325 10.0003C4.08343 13.2678 6.73267 15.9163 10.0002 15.9163C11.3633 15.9162 12.618 15.4546 13.6184 14.68L5.31958 6.38116C4.5449 7.38162 4.08325 8.63705 4.08325 10.0003ZM17.4163 10.0003C17.4161 14.0962 14.0961 17.4161 10.0002 17.4163C5.90424 17.4163 2.58343 14.0963 2.58325 10.0003C2.58325 5.90419 5.90413 2.58331 10.0002 2.58331C14.0962 2.58349 17.4163 5.9043 17.4163 10.0003Z" fill="#404B64"/>
</svg>
