<svg width="20" height="20" viewBox="0 0 20 20" fill="none" xmlns="http://www.w3.org/2000/svg">
<path d="M2 11C2 9.89543 2.89543 9 4 9C5.10457 9 6 9.89543 6 11V15C6 16.1046 5.10457 17 4 17C2.89543 17 2 16.1046 2 15V11Z" fill="#404B64"/>
<path d="M8 8C8 6.89543 8.89543 6 10 6C11.1046 6 12 6.89543 12 8V15C12 16.1046 11.1046 17 10 17C8.89543 17 8 16.1046 8 15V8Z" fill="#091C42" fill-opacity="0.278431"/>
<path d="M14 5C14 3.89543 14.8954 3 16 3C17.1046 3 18 3.89543 18 5V15C18 16.1046 17.1046 17 16 17C14.8954 17 14 16.1046 14 15V5Z" fill="#091C42" fill-opacity="0.278431"/>
</svg>
