<svg width="20" height="20" viewBox="0 0 20 20" fill="none" xmlns="http://www.w3.org/2000/svg">
<path d="M4.6304 8.8101C5.28785 5.84454 8.22489 3.97344 11.1904 4.63089C11.5948 4.72054 11.9953 4.46539 12.085 4.061C12.1747 3.6566 11.9195 3.2561 11.5151 3.16645C7.74075 2.32969 4.00271 4.71109 3.16596 8.48544C2.32921 12.2598 4.7106 15.9978 8.48495 16.8346C12.2593 17.6713 15.9973 15.29 16.8341 11.5156C16.9238 11.1112 16.6686 10.7107 16.2642 10.621C15.8598 10.5314 15.4593 10.7865 15.3697 11.1909C14.7122 14.1565 11.7752 16.0276 8.80961 15.3701C5.84405 14.7127 3.97295 11.7757 4.6304 8.8101Z" fill="#404B64"/>
<path d="M16.0304 6.78033C16.3233 6.48744 16.3233 6.01257 16.0304 5.71967C15.7375 5.42678 15.2626 5.42678 14.9697 5.71967L10 10.6893L7.78037 8.46967C7.48747 8.17678 7.0126 8.17678 6.71971 8.46967C6.42681 8.76257 6.42681 9.23744 6.71971 9.53033L9.46971 12.2803C9.7626 12.5732 10.2375 12.5732 10.5304 12.2803L16.0304 6.78033Z" fill="#404B64"/>
</svg>
