<svg width="20" height="20" viewBox="0 0 20 20" fill="none" xmlns="http://www.w3.org/2000/svg">
<path d="M6.14853 4.10316C6.14853 4.1668 6.11638 4.22641 6.0628 4.26191L3.22886 6.10855C3.10629 6.18223 2.9663 6.04291 3.03998 5.91967L4.88662 3.08573C4.92145 3.03215 4.98106 3 5.04536 3H5.95965C6.06413 3 6.14853 3.0844 6.14853 3.18888V4.10316Z" fill="#404B64"/>
<path d="M9.76488 4.1179C9.76488 4.17349 9.7401 4.22641 9.6979 4.26258L3.23029 9.7275C3.10169 9.83266 2.93156 9.66253 3.03671 9.53392L8.5023 3.06698C8.53847 3.02478 8.59139 3 8.64698 3H9.576C9.67982 3 9.76488 3.0844 9.76488 3.18888V4.1179Z" fill="#404B64"/>
<path d="M13.3814 4.12125C13.3814 4.17484 13.3587 4.22574 13.3192 4.26191L3.23055 13.3451C3.10128 13.459 2.92244 13.2802 3.03631 13.1509L12.1195 3.06229C12.155 3.02277 12.2059 3 12.2595 3H13.1919C13.2964 3 13.3814 3.0844 13.3814 3.18889V4.12125Z" fill="#404B64"/>
<path d="M6.65545 16.7681L15.7387 6.67948C15.7748 6.63996 15.8257 6.61719 15.8793 6.61719H16.8117C16.9162 6.61719 17.0006 6.70158 17.0006 6.80607V7.73844C17.0006 7.79203 16.9778 7.84293 16.9383 7.8791L6.84969 16.9623C6.72042 17.0762 6.54158 16.8974 6.65545 16.7681Z" fill="#404B64"/>
<path d="M10.2711 16.769L15.7367 10.3014C15.7728 10.2592 15.8258 10.2344 15.8814 10.2344H16.8104C16.9149 10.2344 16.9993 10.3188 16.9993 10.4233V11.3523C16.9993 11.4079 16.9745 11.4608 16.9323 11.497L10.4647 16.9625C10.3361 17.0677 10.1659 16.8976 10.2711 16.769Z" fill="#404B64"/>
<path d="M13.8915 16.7712L15.7382 13.9373C15.773 13.8837 15.8326 13.8516 15.8969 13.8516H16.8112C16.9157 13.8516 17.0001 13.936 17.0001 14.0404V14.9547C17.0001 15.0184 16.9679 15.078 16.9144 15.1135L14.0804 16.9601C13.9578 17.0338 13.8179 16.8945 13.8915 16.7712Z" fill="#404B64"/>
<path d="M17 4.12326C17 4.17618 16.9779 4.22641 16.9397 4.26191L3.23218 16.9621C3.10291 17.08 2.92005 16.8971 3.03793 16.7678L15.7381 3.06028C15.7736 3.0221 15.8238 3 15.8767 3H16.8104C16.9149 3 17 3.0844 17 3.18888V4.12259V4.12326Z" fill="#404B64"/>
</svg>
