<svg width="20" height="20" viewBox="0 0 20 20" fill="none" xmlns="http://www.w3.org/2000/svg">
<path d="M18.0251 13.4922C17.983 13.3339 17.9151 13.1836 17.8239 13.0475C17.8434 12.9759 17.8584 12.9031 17.8683 12.8295C17.933 12.3626 17.7712 11.9352 17.4662 11.6045C17.3009 11.4239 17.1238 11.3046 16.9362 11.2314C17.0594 10.7046 17.1216 10.1654 17.122 9.62448C17.122 9.37737 17.108 9.13534 17.0845 8.8969C17.0723 8.77784 17.0576 8.65909 17.0402 8.54065C16.9866 8.1912 16.9069 7.8462 16.8019 7.50862C16.733 7.2868 16.6534 7.06846 16.5633 6.8544C16.4282 6.53738 16.2705 6.23049 16.0913 5.93612C15.9738 5.74026 15.8459 5.55087 15.708 5.36877C15.6404 5.27682 15.57 5.18704 15.4967 5.09956C15.2797 4.83581 15.0438 4.58813 14.791 4.35846C14.707 4.28125 14.6207 4.20669 14.532 4.13487C14.4448 4.06208 14.3555 3.99164 14.2645 3.92362C14.0813 3.78726 13.892 3.65934 13.6972 3.54026C12.6205 2.88635 11.358 2.51135 10.0085 2.51135C6.07945 2.51135 2.89508 5.69588 2.89508 9.62471C2.89492 10.1725 2.95836 10.7185 3.08414 11.2516C2.91539 11.3249 2.75367 11.4391 2.60367 11.6043C2.29875 11.9349 2.1368 12.3607 2.20156 12.8276C2.21141 12.9017 2.22617 12.9752 2.24586 13.0474C2.15477 13.1835 2.08685 13.3339 2.04484 13.4922C1.95109 13.8485 1.98195 14.1699 2.10109 14.4514C1.97156 14.8194 2.00391 15.2113 2.17258 15.552C2.29523 15.8008 2.47078 15.9933 2.68719 16.1653C2.94445 16.3699 3.26648 16.5436 3.65492 16.7103C4.11836 16.908 4.68406 17.0937 4.94133 17.1618C5.60586 17.3339 6.24305 17.4429 6.88883 17.4482C7.80891 17.4567 8.60125 17.2404 9.16851 16.6867C9.44719 16.7209 9.72773 16.738 10.0085 16.7378C10.3052 16.7372 10.6015 16.7185 10.8959 16.682C11.4618 17.2392 12.2572 17.4574 13.1806 17.4487C13.8263 17.4435 14.4635 17.3345 15.1263 17.1622C15.3853 17.0941 15.9508 16.9084 16.4145 16.7107C16.8029 16.5438 17.1249 16.37 17.3839 16.1658C17.5987 15.9937 17.7741 15.8013 17.8968 15.5524C18.0672 15.2117 18.0978 14.8198 17.9701 14.4518C18.088 14.1703 18.1187 13.8482 18.0251 13.4922ZM17.3657 14.4276C17.4962 14.6753 17.5046 14.9553 17.3895 15.216C17.2148 15.611 16.7809 15.9223 15.9381 16.2564C15.4141 16.4642 14.9342 16.5971 14.93 16.5983C14.2369 16.7781 13.61 16.8694 13.0673 16.8694C12.1687 16.8694 11.5001 16.6214 11.076 16.1317C10.3589 16.2539 9.62672 16.2581 8.90828 16.1441C8.48367 16.6256 7.81883 16.8694 6.92781 16.8694C6.38508 16.8694 5.75828 16.7781 5.06508 16.5983C5.06086 16.5971 4.58117 16.4642 4.05695 16.2564C3.2143 15.9223 2.78023 15.6113 2.60562 15.216C2.49047 14.9553 2.49883 14.6753 2.62937 14.4276C2.64141 14.4046 2.65437 14.3821 2.6682 14.3604C2.58997 14.2429 2.53749 14.1102 2.51422 13.9709C2.49095 13.8317 2.49742 13.6891 2.5332 13.5525C2.58508 13.3554 2.69219 13.1915 2.83766 13.0738C2.76758 12.9586 2.7216 12.8305 2.7025 12.6971C2.66062 12.4069 2.75695 12.1172 2.97359 11.881C3.14234 11.6971 3.38086 11.596 3.64492 11.596H3.65195C3.45285 10.9578 3.3519 10.293 3.35258 9.62448C3.35258 5.97831 6.30851 3.02213 9.95523 3.02213C13.6019 3.02213 16.5578 5.97799 16.5578 9.62448C16.5584 10.2948 16.4567 10.9613 16.2563 11.601C16.2882 11.5978 16.3195 11.5963 16.3502 11.5962C16.6142 11.5962 16.8528 11.6974 17.0214 11.8812C17.238 12.1172 17.3345 12.4071 17.2925 12.6973C17.2734 12.8307 17.2274 12.9589 17.1574 13.074C17.3029 13.1917 17.4101 13.3556 17.4619 13.5528C17.4977 13.6893 17.5041 13.8319 17.4809 13.9712C17.4577 14.1104 17.4052 14.2431 17.3269 14.3606C17.3407 14.3821 17.3538 14.4046 17.3657 14.4276Z" fill="white"/>
<path d="M17.3269 14.3606C17.4052 14.2431 17.4577 14.1103 17.4809 13.9711C17.5041 13.8318 17.4977 13.6892 17.4619 13.5527C17.41 13.3556 17.3028 13.1917 17.1574 13.0739C17.2275 12.9588 17.2734 12.8306 17.2925 12.6972C17.3345 12.4071 17.2381 12.1174 17.0214 11.8811C16.8528 11.6973 16.6142 11.5961 16.3502 11.5961C16.3195 11.5961 16.2882 11.5978 16.2563 11.6009C16.4565 10.9612 16.558 10.2948 16.5573 9.62455C16.5573 5.97831 13.6013 3.02222 9.955 3.02222C6.30859 3.02222 3.35234 5.978 3.35234 9.62455C3.35168 10.2931 3.45263 10.9578 3.65172 11.596H3.64468C3.38062 11.596 3.14211 11.6971 2.97344 11.881C2.7568 12.117 2.66038 12.407 2.70234 12.6971C2.72145 12.8305 2.76743 12.9587 2.83749 13.0738C2.69202 13.1915 2.58484 13.3554 2.53297 13.5525C2.4972 13.6892 2.49076 13.8317 2.51406 13.971C2.53735 14.1103 2.58985 14.2431 2.66812 14.3606C2.65421 14.3823 2.6414 14.4047 2.62929 14.4278C2.49882 14.6755 2.49039 14.9554 2.60563 15.2161C2.78031 15.6112 3.21421 15.9224 4.05695 16.2566C4.58093 16.4644 5.06086 16.5973 5.06508 16.5985C5.7582 16.7782 6.38508 16.8696 6.92773 16.8696C7.81883 16.8696 8.48367 16.6258 8.90828 16.1442C9.62672 16.2582 10.3589 16.254 11.076 16.1319C11.5001 16.6216 12.1687 16.8696 13.0673 16.8696C13.61 16.8696 14.2369 16.7782 14.9299 16.5985C14.9342 16.5973 15.4139 16.4644 15.9381 16.2566C16.7809 15.9224 17.2148 15.6112 17.3895 15.2161C17.5046 14.9554 17.4963 14.6755 17.3657 14.4278C17.3538 14.4046 17.3407 14.3821 17.3269 14.3606ZM8.60445 15.3903C8.56789 15.4542 8.52875 15.5167 8.48711 15.5774C8.37734 15.7381 8.23297 15.8609 8.06539 15.9521C7.74507 16.1268 7.33961 16.1878 6.92773 16.1878C6.27703 16.1878 5.61 16.0356 5.23617 15.9386C5.21773 15.9338 2.94445 15.2917 3.23227 14.7452C3.2807 14.6532 3.36038 14.6165 3.46077 14.6165C3.86601 14.6165 4.6039 15.2199 4.92101 15.2199C4.99187 15.2199 5.04187 15.1898 5.06226 15.1162C5.19741 14.6315 3.00812 14.4278 3.19249 13.7259C3.22499 13.6017 3.31328 13.5512 3.43734 13.5512C3.97313 13.5511 5.17563 14.4934 5.42711 14.4934C5.44641 14.4934 5.46023 14.4877 5.46773 14.4758C5.46882 14.474 5.46992 14.4723 5.47094 14.4704C5.58898 14.2755 5.52124 14.1338 4.71257 13.6385L4.63491 13.5912C3.74499 13.0526 3.12038 12.7285 3.47562 12.3417C3.51648 12.2971 3.57445 12.2774 3.64484 12.2774C3.72827 12.2774 3.82929 12.3053 3.94054 12.3521C4.41054 12.5503 5.06195 13.0909 5.33406 13.3266C5.37687 13.3638 5.4194 13.4013 5.46163 13.4392C5.46163 13.4392 5.80617 13.7974 6.01445 13.7974C6.06242 13.7974 6.10312 13.7785 6.1307 13.7318C6.27844 13.4828 4.75859 12.331 4.67288 11.8558C4.61476 11.5338 4.71366 11.3707 4.89648 11.3707C4.98343 11.3707 5.08952 11.4078 5.20663 11.4821C5.56991 11.7126 6.27132 12.9179 6.52812 13.3868C6.61421 13.5439 6.76116 13.6103 6.89359 13.6103C7.15632 13.6103 7.36171 13.3492 6.91765 13.0173C6.25023 12.5179 6.48445 11.7017 6.80297 11.6514C6.81656 11.6492 6.8303 11.6481 6.84398 11.6481C7.13366 11.6481 7.2614 12.1473 7.2614 12.1473C7.2614 12.1473 7.63593 13.0878 8.2793 13.7306C8.86305 14.3142 8.94461 14.793 8.60445 15.3903ZM10.6848 15.5005L10.6515 15.5045L10.5946 15.511C10.5647 15.5141 10.5347 15.5171 10.5046 15.5198L10.4753 15.5224L10.4485 15.5247L10.4105 15.5278L10.3686 15.5308L10.3267 15.5335L10.3174 15.5342C10.3065 15.5348 10.2955 15.5355 10.2845 15.536L10.2705 15.5368C10.2575 15.5375 10.2445 15.5381 10.2314 15.5387L10.186 15.5406L10.1448 15.5421L10.1173 15.5428H10.1034C10.0948 15.5428 10.0863 15.5433 10.0777 15.5434H10.0641C10.0555 15.5434 10.047 15.5434 10.0384 15.5438L10.0034 15.5442H9.95453C9.91617 15.5442 9.87789 15.5438 9.83977 15.5431L9.80883 15.5424C9.8 15.5424 9.79117 15.542 9.7825 15.5417L9.74969 15.5407L9.70898 15.5392L9.67227 15.5375L9.66281 15.5371L9.62789 15.5353C9.61812 15.5348 9.60852 15.5343 9.59883 15.5336L9.57625 15.5323C9.54789 15.5305 9.51953 15.5285 9.49117 15.5263L9.46148 15.5239C9.44898 15.523 9.43648 15.5218 9.42406 15.5207C9.40945 15.5195 9.39484 15.5181 9.38023 15.5167C9.35578 15.5144 9.33133 15.5119 9.30687 15.5092H9.3057C9.66273 14.7128 9.48219 13.9688 8.7607 13.248C8.2875 12.7754 7.97273 12.0776 7.90742 11.9244C7.77523 11.4709 7.42539 10.9667 6.84438 10.9667C6.79523 10.9667 6.74617 10.9706 6.69766 10.9783C6.44313 11.0184 6.22063 11.1649 6.06188 11.3853C5.89031 11.172 5.72359 11.0024 5.57281 10.9066C5.34547 10.7624 5.11859 10.6893 4.89757 10.6893C4.62171 10.6893 4.37515 10.8026 4.20327 11.0081L4.1989 11.0133C4.19562 10.9998 4.19249 10.9863 4.18929 10.9727L4.1889 10.9709C4.15619 10.831 4.12873 10.69 4.10655 10.5481C4.10655 10.5471 4.10655 10.5462 4.10609 10.5453C4.10437 10.5346 4.1028 10.5238 4.10116 10.5131C4.09636 10.4813 4.09185 10.4496 4.08765 10.4178C4.08577 10.4033 4.08374 10.3888 4.08195 10.3744L4.07663 10.331C4.07491 10.3166 4.07351 10.3035 4.07195 10.2897L4.07148 10.2863C4.06524 10.23 4.05977 10.1738 4.05507 10.1174L4.05335 10.0957L4.05062 10.0588C4.04984 10.0488 4.04905 10.0386 4.04851 10.0285C4.04851 10.026 4.04812 10.0237 4.04804 10.0214C4.04605 9.99315 4.04436 9.96479 4.04296 9.93643C4.04218 9.92166 4.0414 9.90698 4.04077 9.89213L4.03921 9.85338L4.03882 9.84166L4.03757 9.80596L4.03679 9.77557C4.03679 9.76346 4.03616 9.75135 4.03601 9.73924C4.03577 9.72713 4.03546 9.71385 4.03538 9.70104C4.03523 9.68823 4.03538 9.67557 4.03499 9.66283C4.03468 9.65002 4.03499 9.63729 4.03499 9.62455C4.03499 6.3548 6.68585 3.70394 9.95594 3.70394C13.2259 3.70394 15.8767 6.35472 15.8767 9.62455V9.70104C15.8767 9.71377 15.8763 9.72658 15.8761 9.73924C15.8761 9.74979 15.8756 9.76018 15.8753 9.77088C15.8753 9.78026 15.8749 9.78971 15.8746 9.79877C15.8746 9.81072 15.8739 9.82268 15.8735 9.83463V9.83557L15.8719 9.87705C15.8713 9.88916 15.8709 9.90135 15.8702 9.91346L15.8698 9.92205L15.8677 9.9608C15.8631 10.0438 15.8568 10.1267 15.8489 10.2096V10.2106C15.8476 10.2242 15.8463 10.2378 15.8448 10.2513L15.8413 10.2835L15.8343 10.3463L15.8303 10.3781L15.8254 10.4155C15.8236 10.4291 15.8218 10.4428 15.8198 10.4563C15.8177 10.4715 15.8155 10.4867 15.8132 10.5018L15.8078 10.5377L15.8014 10.5783C15.7992 10.5918 15.7969 10.6053 15.7944 10.6187C15.7918 10.6322 15.7898 10.6456 15.7874 10.6591C15.7827 10.686 15.7778 10.7128 15.7727 10.7396C15.7648 10.7797 15.7567 10.8197 15.7484 10.8597L15.7398 10.8993C15.737 10.9125 15.734 10.9258 15.731 10.939C15.5644 10.7771 15.3437 10.6888 15.1003 10.6888C14.8795 10.6888 14.6523 10.7619 14.4251 10.906C14.2743 11.0018 14.1077 11.1715 13.936 11.3848C13.777 11.1643 13.5545 11.0178 13.3002 10.9778C13.2516 10.9701 13.2026 10.9662 13.1534 10.9662C12.5723 10.9662 12.2227 11.4703 12.0904 11.9238C12.0248 12.0771 11.7099 12.7749 11.2363 13.2481C10.5153 13.9667 10.3334 14.7073 10.6848 15.5005ZM16.7974 13.906L16.7951 13.913C16.7891 13.9287 16.7823 13.944 16.7745 13.9588C16.7687 13.9698 16.7623 13.9804 16.7555 13.9907C16.7424 14.0102 16.7281 14.0288 16.7126 14.0463C16.709 14.0503 16.7055 14.0544 16.7015 14.0584C16.6959 14.0644 16.6902 14.0703 16.6843 14.0761C16.5791 14.1803 16.4188 14.2717 16.2376 14.3556C16.217 14.3649 16.1962 14.3742 16.1752 14.3835L16.1542 14.3928C16.1402 14.399 16.1262 14.4051 16.1116 14.4111C16.0976 14.4172 16.083 14.4233 16.0685 14.4292L16.0249 14.4472C15.923 14.4892 15.8185 14.5292 15.7166 14.5686L15.673 14.5856L15.63 14.6024C15.6013 14.6136 15.573 14.6248 15.5452 14.636L15.5037 14.6527L15.463 14.6693L15.443 14.6778C15.4296 14.6833 15.4166 14.6888 15.4035 14.6944C15.1037 14.8231 14.888 14.9539 14.9334 15.1163C14.9346 15.1209 14.936 15.1253 14.9376 15.1296C14.9416 15.1416 14.9472 15.1529 14.9541 15.1636C14.9582 15.1699 14.9629 15.176 14.9681 15.1814C15.0214 15.2368 15.1184 15.2281 15.2406 15.1841C15.2578 15.1778 15.2749 15.1712 15.2919 15.1643L15.3025 15.1599C15.3305 15.1481 15.3601 15.1348 15.3903 15.1204C15.3979 15.1168 15.4055 15.1134 15.4132 15.1094C15.5627 15.0363 15.7322 14.9378 15.9003 14.8482C15.9676 14.8119 16.0358 14.7774 16.1048 14.7447C16.2641 14.6698 16.4138 14.6167 16.5341 14.6167C16.5905 14.6167 16.6404 14.6282 16.682 14.6548L16.6889 14.6594C16.715 14.6778 16.7369 14.7013 16.7532 14.7287C16.7564 14.7339 16.7595 14.7395 16.7626 14.7452C16.822 14.8581 16.7723 14.9749 16.6558 15.0896C16.544 15.1996 16.3701 15.3075 16.1724 15.4074C16.1577 15.4148 16.143 15.4222 16.1281 15.4295C15.5398 15.7184 14.7695 15.936 14.7588 15.9387C14.5534 15.9919 14.2598 16.0617 13.9291 16.114L13.8802 16.1217L13.8721 16.1228C13.8351 16.1285 13.798 16.1337 13.7608 16.1385C13.723 16.1436 13.6849 16.1482 13.6466 16.1525L13.6395 16.1533C13.5005 16.1693 13.3609 16.1799 13.2209 16.185H13.2189C13.1683 16.1868 13.1177 16.1878 13.0671 16.1878H13.0087C12.9316 16.1867 12.8545 16.1832 12.7776 16.1773C12.7758 16.1773 12.7738 16.1773 12.772 16.1768C12.7445 16.1747 12.717 16.1721 12.6895 16.1691C12.6609 16.166 12.6325 16.1626 12.6041 16.1588C12.5855 16.1563 12.5669 16.1535 12.5483 16.1504C12.5294 16.1474 12.5105 16.1442 12.4916 16.141L12.4659 16.1361L12.464 16.1357C12.4369 16.1306 12.4099 16.1249 12.383 16.1186C12.3674 16.1151 12.3519 16.1117 12.3365 16.1074L12.3272 16.1051C12.3195 16.1032 12.3121 16.1012 12.3045 16.0992L12.3004 16.0981L12.2763 16.091C12.2676 16.0886 12.2588 16.086 12.2501 16.0834L12.247 16.0825L12.2243 16.0756C12.2157 16.0729 12.2071 16.0701 12.1986 16.0673L12.1777 16.0603L12.1623 16.0549C12.1474 16.0497 12.1327 16.0443 12.118 16.0387L12.1041 16.0332L12.0927 16.0287C12.0705 16.0198 12.0484 16.0105 12.0266 16.0007L12.0122 15.9937L12.0098 15.9926C12.0046 15.9902 11.9995 15.9878 11.9944 15.9856C11.9843 15.9808 11.9743 15.9758 11.9644 15.9707L11.9613 15.9692L11.947 15.9617C11.9214 15.9483 11.8964 15.9341 11.8719 15.919L11.8584 15.9107C11.8517 15.9066 11.845 15.9023 11.8384 15.8979L11.8209 15.8863L11.8021 15.8734L11.7909 15.8653C11.779 15.8569 11.7673 15.8481 11.7559 15.8392L11.7377 15.8252C11.7305 15.8193 11.7233 15.8134 11.7162 15.8074C11.7102 15.8024 11.7043 15.7973 11.6984 15.7921L11.698 15.7917C11.6916 15.7862 11.6855 15.7806 11.6793 15.7749C11.6732 15.7694 11.6671 15.7638 11.6612 15.7581L11.6605 15.7574C11.6542 15.7514 11.6481 15.7454 11.6421 15.7392C11.6361 15.7331 11.6299 15.7271 11.6241 15.7208C11.6182 15.7146 11.6122 15.7083 11.6064 15.7018C11.6006 15.6954 11.5953 15.6896 11.5898 15.6832L11.588 15.6811C11.5827 15.675 11.5775 15.6688 11.5723 15.6625C11.5612 15.6492 11.5503 15.6355 11.5398 15.6215C11.5293 15.6074 11.519 15.5931 11.5089 15.5785L11.4993 15.5641C11.4865 15.5453 11.474 15.5264 11.4619 15.5072C11.4528 15.4934 11.444 15.4795 11.4354 15.4653C11.4298 15.4565 11.4245 15.4476 11.4192 15.4388L11.417 15.4353C11.412 15.4267 11.407 15.4182 11.4021 15.4097C11.3993 15.4051 11.3966 15.4005 11.3941 15.3957C11.3916 15.3909 11.3886 15.386 11.3859 15.381L11.3814 15.3733L11.3787 15.3683C11.3734 15.3589 11.3683 15.3495 11.3633 15.3399C11.3609 15.3357 11.3587 15.3315 11.3563 15.3274L11.3493 15.3139L11.3423 15.3006C11.3247 15.2654 11.308 15.2298 11.2924 15.1937L11.2869 15.1805C11.2833 15.1717 11.2799 15.1629 11.2763 15.1542C11.2746 15.15 11.2729 15.1459 11.2714 15.1417C11.263 15.12 11.2552 15.0981 11.248 15.0761C11.2455 15.0682 11.243 15.0605 11.2406 15.0527C11.235 15.0349 11.2299 15.0171 11.2254 14.999C11.2198 14.978 11.2149 14.9568 11.2108 14.9355C11.2099 14.9312 11.2091 14.9269 11.2084 14.9228C11.2043 14.9019 11.201 14.8809 11.1984 14.8598C11.1978 14.8556 11.1973 14.8515 11.1969 14.8474L11.1955 14.8347C11.1938 14.8181 11.1925 14.8015 11.1917 14.7849C11.1917 14.7806 11.1913 14.7764 11.1912 14.7724C11.1908 14.7641 11.1906 14.7558 11.1905 14.7475C11.1862 14.4137 11.3551 14.0928 11.7163 13.7317C12.3596 13.089 12.7341 12.1485 12.7341 12.1485C12.7341 12.1485 12.7442 12.109 12.7652 12.0522C12.768 12.0443 12.7711 12.0362 12.7745 12.0277C12.7867 11.9959 12.8005 11.9646 12.8157 11.9342L12.8188 11.9283C12.8317 11.9024 12.8459 11.8771 12.8612 11.8524C12.8648 11.8467 12.8683 11.8411 12.8723 11.8354C12.8837 11.8185 12.8959 11.8019 12.9086 11.7859C12.9155 11.7772 12.9231 11.7686 12.9307 11.7603C12.9338 11.757 12.9367 11.7537 12.9399 11.7506C12.9772 11.7121 13.0198 11.6806 13.068 11.6639L13.0741 11.6619C13.0781 11.6606 13.0822 11.6593 13.0863 11.6581C13.0911 11.6569 13.0959 11.6558 13.1008 11.6548L13.103 11.6543C13.1132 11.6523 13.1235 11.651 13.1339 11.6503H13.1348C13.1402 11.6503 13.1456 11.6497 13.1512 11.6497C13.1581 11.6497 13.1646 11.6497 13.1714 11.6504C13.1784 11.651 13.1854 11.6518 13.1924 11.6529C13.2504 11.6621 13.3055 11.6967 13.353 11.7499C13.3711 11.7703 13.3873 11.7921 13.4016 11.8153C13.4109 11.8303 13.4198 11.8461 13.4281 11.8628C13.4315 11.8698 13.4347 11.8762 13.4378 11.8831C13.4459 11.9007 13.4533 11.9187 13.4597 11.9371C13.4749 11.98 13.4864 12.0242 13.494 12.0692C13.5005 12.1087 13.5045 12.1485 13.5057 12.1885C13.5063 12.2098 13.5063 12.2314 13.5057 12.2532C13.5015 12.3546 13.4807 12.4547 13.4442 12.5495C13.4409 12.5581 13.4373 12.5669 13.4337 12.5756C13.4266 12.5933 13.4187 12.6106 13.4102 12.6276C13.4038 12.6405 13.3972 12.6535 13.39 12.6663C13.3853 12.6749 13.3804 12.6835 13.3755 12.6921C13.3629 12.7135 13.3493 12.7348 13.3347 12.756L13.3259 12.7686C13.2913 12.8167 13.2529 12.8619 13.2109 12.9036C13.1695 12.9451 13.1251 12.9835 13.0781 13.0185C13.0311 13.0533 12.987 13.0919 12.9462 13.1338C12.8287 13.2571 12.8014 13.3658 12.8278 13.4482C12.832 13.4612 12.8376 13.4738 12.8443 13.4856C12.8522 13.4992 12.8616 13.5117 12.8722 13.5231L12.8763 13.5274L12.8805 13.5317C12.8848 13.5357 12.8892 13.5397 12.894 13.5436L12.8987 13.5474C12.91 13.5561 12.922 13.5639 12.9346 13.5708C12.9383 13.5728 12.9416 13.5747 12.9457 13.5766C12.9593 13.5832 12.9733 13.5889 12.9877 13.5935C12.9916 13.5949 12.9956 13.596 12.9997 13.5973L13.0048 13.5986L13.0118 13.6005L13.0178 13.602L13.0244 13.6034L13.0309 13.6047L13.037 13.6057C13.0416 13.6065 13.0463 13.6073 13.0509 13.6078L13.0554 13.6085L13.0635 13.6093L13.0685 13.6099L13.0767 13.6104H13.0816L13.0902 13.6109H13.1172L13.1249 13.6104L13.1338 13.6099L13.1447 13.6088L13.1548 13.6077C13.1572 13.6077 13.1595 13.6071 13.1619 13.6066C13.1931 13.6021 13.2238 13.5938 13.253 13.5819L13.2655 13.5767C13.2724 13.5736 13.2795 13.5704 13.2859 13.567C13.2996 13.5601 13.313 13.5523 13.3258 13.5438C13.3437 13.5321 13.3605 13.5189 13.3763 13.5045C13.3801 13.5011 13.3838 13.4975 13.3873 13.4941C13.3891 13.4924 13.3909 13.4907 13.3926 13.4888C13.396 13.4853 13.3995 13.4819 13.403 13.4781C13.428 13.4506 13.4496 13.4203 13.4674 13.3877C13.6203 13.1096 13.7805 12.8357 13.948 12.5663L13.9709 12.5295L13.9941 12.4927C14.0057 12.474 14.0174 12.4556 14.0291 12.4374L14.0408 12.4191C14.0797 12.3581 14.1192 12.2976 14.1595 12.2375L14.1833 12.2019C14.2311 12.131 14.2788 12.0621 14.326 11.9967L14.3495 11.9642C14.4009 11.8934 14.4545 11.824 14.51 11.7563L14.532 11.7299C14.5357 11.7256 14.5391 11.7212 14.543 11.717C14.5503 11.7084 14.5576 11.7 14.5647 11.6919C14.5683 11.6878 14.5716 11.6837 14.5755 11.6796L14.5964 11.656L14.6069 11.6446C14.6174 11.6332 14.6277 11.6224 14.6379 11.612C14.6449 11.6049 14.6514 11.598 14.6581 11.5914C14.6977 11.551 14.7414 11.5146 14.7885 11.4831L14.7995 11.4761C14.8099 11.4691 14.8208 11.4625 14.8319 11.4566C15.0166 11.3517 15.1695 11.344 15.2575 11.4321C15.3108 11.4853 15.3403 11.5737 15.3387 11.6967C15.3387 11.7021 15.3387 11.7075 15.3383 11.7131V11.7192C15.3383 11.7248 15.3378 11.7304 15.3373 11.7361C15.3373 11.7431 15.3366 11.7501 15.3359 11.7571C15.3352 11.7641 15.3348 11.7694 15.3341 11.7756C15.3341 11.7774 15.3338 11.7792 15.3334 11.781C15.333 11.7864 15.3323 11.792 15.3315 11.7975C15.3315 11.7992 15.3315 11.8009 15.3309 11.8026C15.33 11.81 15.3289 11.8174 15.3277 11.8247C15.3268 11.8317 15.3256 11.8383 15.3244 11.8452L15.3223 11.8568C15.3203 11.8679 15.3177 11.8788 15.3145 11.8896C15.3084 11.9099 15.3011 11.9296 15.2924 11.9488C15.2803 11.9753 15.267 12.001 15.2523 12.026C15.2441 12.0399 15.2358 12.0535 15.2271 12.0671C15.2182 12.081 15.2088 12.0952 15.1991 12.1095C15.1745 12.1448 15.1488 12.1794 15.1222 12.2132L15.11 12.2286C15.0666 12.2828 15.0217 12.3358 14.9755 12.3876L14.9609 12.404C14.9412 12.426 14.9212 12.4481 14.9007 12.4703L14.8853 12.487C14.8751 12.4981 14.8644 12.5093 14.8541 12.5206C14.8438 12.5317 14.8331 12.5431 14.8223 12.5544L14.7902 12.5882L14.7577 12.6223L14.7248 12.6563C14.7028 12.6792 14.6807 12.702 14.6584 12.7248C14.3416 13.0497 14.0079 13.3735 13.8949 13.5754C13.8873 13.5885 13.8805 13.6021 13.8745 13.616C13.8584 13.6527 13.8516 13.6841 13.8563 13.7095C13.8577 13.7178 13.8606 13.7258 13.8649 13.7331C13.8712 13.7442 13.879 13.7543 13.888 13.7634C13.8921 13.7674 13.8965 13.7712 13.9011 13.7746C13.9244 13.7912 13.9524 13.7997 13.981 13.7989H13.9899L13.9991 13.7982L14.0082 13.7972L14.0158 13.7961C14.0168 13.796 14.0179 13.7958 14.0189 13.7955L14.0259 13.7942L14.0277 13.7938L14.0354 13.7921L14.0381 13.7914C14.0409 13.7907 14.0435 13.79 14.0463 13.7892C14.049 13.7885 14.0527 13.7874 14.056 13.7863C14.0698 13.7822 14.0832 13.7773 14.0964 13.7717C14.1034 13.7688 14.1102 13.7658 14.1169 13.7625C14.1204 13.761 14.1239 13.7593 14.1272 13.7576L14.1377 13.7524C14.1627 13.7395 14.187 13.7253 14.2108 13.7102L14.2212 13.7031C14.2247 13.701 14.2282 13.6987 14.2316 13.6962L14.242 13.6892L14.2475 13.6854L14.2625 13.6749C14.2765 13.6653 14.2895 13.6553 14.3027 13.6453L14.3039 13.6443L14.3249 13.6281C14.3536 13.6054 14.3808 13.5826 14.4055 13.5611L14.4219 13.5467L14.4234 13.5453L14.432 13.5378C14.4521 13.5196 14.4701 13.5028 14.485 13.4888L14.4912 13.4828C14.4966 13.4778 14.5015 13.473 14.5059 13.4689L14.5147 13.4603L14.5178 13.4572L14.5187 13.4563L14.5278 13.4472L14.5336 13.4412L14.5343 13.4406L14.537 13.4381L14.5405 13.435L14.5416 13.434L14.5445 13.4313L14.5604 13.4174L14.5693 13.4094C14.5741 13.4053 14.5787 13.401 14.5833 13.3967L14.5939 13.3873C14.5959 13.3857 14.5977 13.384 14.5997 13.3823L14.6109 13.3725L14.6273 13.3581L14.636 13.3505C14.67 13.321 14.7113 13.2853 14.7588 13.245L14.7783 13.2285L14.8104 13.2016L14.8433 13.1742C14.8863 13.1385 14.9325 13.1006 14.9814 13.0613L15.0135 13.0355C15.0409 13.0137 15.0689 12.9915 15.0973 12.9692C15.1088 12.9602 15.1205 12.9512 15.1323 12.9423C15.1614 12.9197 15.1906 12.8973 15.2201 12.8752C15.2871 12.8246 15.3562 12.7738 15.4262 12.7245L15.4562 12.7035C15.4773 12.6891 15.4982 12.6746 15.5191 12.6604L15.5381 12.6476C15.5755 12.6222 15.6135 12.5974 15.6518 12.5733L15.6708 12.5613L15.6896 12.5496C15.7085 12.5379 15.7273 12.5264 15.7459 12.5153L15.7646 12.5041L15.802 12.4824L15.8386 12.4613L15.846 12.4573L15.875 12.4413C15.8871 12.4348 15.8991 12.4285 15.9112 12.4223L15.9291 12.4131L15.9465 12.4043C15.9526 12.4014 15.9586 12.3984 15.9645 12.3955C16.0037 12.3761 16.0438 12.3583 16.0844 12.3421C16.0954 12.3374 16.1063 12.3331 16.1172 12.3295L16.1492 12.3182C16.1588 12.315 16.1682 12.312 16.1772 12.3092L16.1803 12.3083C16.1852 12.3067 16.19 12.3053 16.1948 12.3041L16.1962 12.3037C16.2062 12.3008 16.2161 12.2983 16.2259 12.296H16.2266C16.2542 12.2893 16.2823 12.2846 16.3107 12.2817C16.3237 12.2803 16.3368 12.2796 16.3499 12.2797H16.3565C16.3652 12.2797 16.3737 12.2803 16.382 12.2811C16.3859 12.2811 16.3897 12.2819 16.3934 12.2824H16.395C16.3988 12.2828 16.4025 12.2834 16.4062 12.2842C16.4099 12.2849 16.4137 12.2856 16.4173 12.2864H16.4184C16.4221 12.2872 16.4254 12.2881 16.4292 12.2892C16.4491 12.2948 16.468 12.3034 16.4853 12.3146C16.4938 12.3202 16.5018 12.3264 16.5091 12.3334L16.5112 12.3354C16.5127 12.3367 16.514 12.338 16.5152 12.3393L16.5191 12.3435C16.5505 12.3763 16.5764 12.4141 16.5959 12.4552L16.5989 12.4622C16.6055 12.4778 16.6108 12.494 16.6145 12.5105C16.6256 12.561 16.6213 12.6136 16.6022 12.6617C16.5949 12.681 16.5861 12.6997 16.5757 12.7175C16.5514 12.7585 16.5226 12.7965 16.4898 12.831L16.4829 12.8384C16.4725 12.8493 16.4617 12.8603 16.4504 12.8712C16.4454 12.8761 16.4402 12.881 16.4349 12.8859L16.4189 12.9006L16.4105 12.9081C16.3904 12.926 16.3697 12.9435 16.3487 12.9603C16.3359 12.9706 16.3231 12.9807 16.3102 12.9906C16.2644 13.0256 16.2177 13.0594 16.1702 13.092C16.1416 13.1117 16.1127 13.131 16.0835 13.15C16.0117 13.1971 15.9391 13.2431 15.8659 13.2878C15.7121 13.3823 15.5417 13.4834 15.3601 13.5933L15.313 13.6218C15.2616 13.6532 15.213 13.6832 15.1672 13.7118L15.1441 13.7263L15.1005 13.7542C15.0716 13.7728 15.0428 13.7914 15.014 13.8101L14.9908 13.8254C14.9795 13.8328 14.9682 13.8403 14.957 13.8478L14.9459 13.8548L14.9122 13.8775L14.8943 13.8898L14.8734 13.9043L14.8539 13.9178C14.8213 13.9409 14.791 13.9628 14.7631 13.9837L14.7527 13.9917C14.7362 14.0041 14.72 14.0167 14.704 14.0296C14.6798 14.0491 14.6578 14.0677 14.638 14.0856L14.6284 14.0944C14.6228 14.0995 14.6173 14.1046 14.6121 14.1096C14.6085 14.1131 14.6052 14.1166 14.6014 14.1199L14.5964 14.1249C14.5852 14.1362 14.5743 14.1477 14.5638 14.1595L14.5586 14.1654C14.5471 14.1787 14.5371 14.1914 14.5284 14.2038L14.5245 14.2094C14.5176 14.2194 14.5113 14.2297 14.5055 14.2403C14.5041 14.243 14.5027 14.2456 14.5014 14.2483L14.4976 14.2563L14.495 14.2621L14.4934 14.266L14.492 14.2695L14.4902 14.2742C14.4854 14.2874 14.482 14.3012 14.4801 14.3151L14.4795 14.3199L14.479 14.3245V14.3491C14.479 14.3511 14.479 14.3531 14.4795 14.3553L14.4799 14.3591C14.4799 14.3611 14.4804 14.3631 14.4807 14.3653C14.481 14.3673 14.4816 14.371 14.4822 14.3738V14.3742C14.4827 14.377 14.4833 14.3796 14.484 14.3824C14.4847 14.3851 14.4854 14.3882 14.4862 14.391C14.4877 14.3966 14.4896 14.4021 14.4916 14.4075C14.4928 14.4108 14.494 14.414 14.4953 14.4172C14.4953 14.4178 14.4958 14.4185 14.4961 14.4192L14.4989 14.4255L14.5028 14.4342C14.507 14.4431 14.5116 14.4519 14.5166 14.4604L14.5218 14.4693L14.5271 14.4782C14.528 14.4797 14.5291 14.4811 14.5303 14.4824L14.532 14.4842L14.534 14.486L14.536 14.4876C14.539 14.4897 14.5422 14.4913 14.5455 14.4925C14.5473 14.4931 14.5492 14.4936 14.5511 14.4941C14.5962 14.5042 14.6888 14.467 14.812 14.402C14.8189 14.3982 14.8266 14.3943 14.834 14.3903L14.8715 14.3698L14.8898 14.3596C14.9028 14.3527 14.9161 14.3448 14.9297 14.3371L14.9545 14.3231C15.1172 14.2294 15.3116 14.1091 15.5125 13.9916C15.5313 13.9806 15.5502 13.9696 15.5691 13.9587L15.6071 13.9344C15.6512 13.9092 15.6955 13.8842 15.7399 13.8596C15.7959 13.8288 15.8523 13.7988 15.9093 13.7698L15.9465 13.751C15.9712 13.7388 15.9956 13.7269 16.0198 13.7153C16.0665 13.6931 16.1137 13.6721 16.1616 13.6521L16.1877 13.6415L16.1909 13.6403C16.3295 13.5853 16.4552 13.5514 16.557 13.5514C16.5789 13.5512 16.6009 13.5531 16.6226 13.5568H16.6233C16.6302 13.5581 16.6366 13.5595 16.643 13.561H16.6442C16.6609 13.5653 16.677 13.5713 16.6923 13.579C16.7138 13.5901 16.7331 13.6049 16.7495 13.6227C16.757 13.631 16.7636 13.6399 16.7695 13.6495C16.7804 13.6663 16.789 13.6845 16.7952 13.7035C16.7977 13.711 16.7998 13.7182 16.8021 13.726C16.8186 13.7851 16.817 13.8478 16.7974 13.906Z" fill="#FF9D00"/>
<path fill-rule="evenodd" clip-rule="evenodd" d="M15.8758 9.66289V9.62453C15.8758 6.35468 13.2259 3.70398 9.95586 3.70398C6.68587 3.70398 4.035 6.35484 4.035 9.62453V9.63734C4.03485 9.64585 4.03477 9.65437 4.035 9.66289C4.03538 9.67562 4.03552 9.68835 4.03539 9.70109L4.03579 9.72921L4.03602 9.73929C4.03602 9.74398 4.03618 9.74859 4.03634 9.75328C4.03657 9.7607 4.03672 9.7682 4.03672 9.77562L4.03758 9.80601L4.03883 9.84171L4.03922 9.85343L4.04078 9.89039V9.89218C4.04141 9.90664 4.0422 9.92101 4.0429 9.93539L4.04297 9.93648C4.04375 9.95117 4.04454 9.96593 4.04548 9.9807C4.04626 9.99429 4.04703 10.0079 4.04805 10.0215L4.04821 10.0239C4.04889 10.0355 4.04967 10.0473 4.05055 10.0589L4.05078 10.062L4.05336 10.0958L4.0536 10.098C4.05407 10.1045 4.05453 10.1111 4.05516 10.1174C4.05983 10.1737 4.06528 10.2301 4.07149 10.2862L4.07188 10.2898L4.07664 10.3311L4.08196 10.3744L4.08586 10.4039L4.08766 10.4177C4.09182 10.4496 4.09633 10.4814 4.10117 10.5131L4.10149 10.5152L4.1061 10.5452C4.1284 10.6881 4.15603 10.8302 4.18891 10.971L4.18931 10.9727L4.1918 10.9833L4.19891 11.0134L4.20328 11.0081C4.37516 10.8027 4.62172 10.6894 4.89758 10.6894C5.11867 10.6894 5.34548 10.7625 5.57282 10.9066C5.7236 11.0024 5.89032 11.172 6.06188 11.3854C6.22063 11.1649 6.44313 11.0184 6.69767 10.9784C6.7462 10.9707 6.79525 10.9669 6.84438 10.9668C7.42532 10.9668 7.77524 11.4709 7.90742 11.9244C7.97274 12.0777 8.2875 12.7755 8.76219 13.2475C9.48375 13.9684 9.6643 14.7122 9.30719 15.5087H9.30844C9.33274 15.5114 9.35719 15.5139 9.3818 15.5162C9.39641 15.5176 9.41094 15.519 9.42563 15.5202L9.43078 15.5207L9.46305 15.5234L9.49274 15.5258C9.52102 15.528 9.54938 15.53 9.57781 15.5318L9.60039 15.5331L9.61828 15.5342L9.62938 15.5348L9.6643 15.5366L9.67383 15.537L9.71047 15.5387L9.75125 15.5402L9.78399 15.5412L9.78946 15.5413C9.79641 15.5416 9.80336 15.5419 9.81031 15.5419L9.81781 15.5421C9.86391 15.5432 9.90992 15.5437 9.95602 15.5437H10.0049L10.0398 15.5433C10.0484 15.5429 10.057 15.5429 10.0656 15.5429H10.0792L10.091 15.5426C10.0956 15.5424 10.1002 15.5423 10.1049 15.5423H10.1189L10.1463 15.5416L10.1876 15.5402L10.233 15.5381C10.2461 15.5377 10.2591 15.5369 10.272 15.5363L10.286 15.5355L10.3068 15.5344L10.319 15.5337L10.3282 15.533L10.3702 15.5303L10.412 15.5273L10.4501 15.5242L10.4768 15.5219L10.5062 15.5193C10.5552 15.5149 10.6041 15.5098 10.653 15.5039L10.6864 15.4999C10.3349 14.7068 10.5169 13.9662 11.2354 13.2482C11.7091 12.7749 12.0238 12.0771 12.0895 11.9238C12.2217 11.4704 12.5714 10.9662 13.1525 10.9662C13.2016 10.9662 13.2508 10.9702 13.2993 10.9778C13.5536 11.0178 13.7761 11.1644 13.9351 11.3848C14.1067 11.1716 14.2734 11.0018 14.4242 10.906C14.6515 10.7619 14.8785 10.6888 15.0994 10.6888C15.3428 10.6888 15.5634 10.7771 15.7301 10.9391C15.7331 10.9259 15.7361 10.9127 15.739 10.8994L15.7475 10.8598C15.7505 10.8454 15.7536 10.8309 15.7565 10.8165C15.7616 10.7909 15.7668 10.7654 15.7717 10.7396C15.7769 10.7129 15.7818 10.686 15.7865 10.6591L15.7889 10.6446C15.7904 10.636 15.7918 10.6274 15.7934 10.6187C15.7961 10.6053 15.7983 10.5919 15.8005 10.5783L15.8013 10.5731L15.8069 10.5377L15.8123 10.5019V10.5016C15.8163 10.4751 15.8201 10.4486 15.8236 10.4221L15.8245 10.4155L15.8294 10.3782L15.8334 10.3463L15.8404 10.2835L15.8431 10.2583L15.8438 10.2514C15.8453 10.2378 15.8467 10.2242 15.848 10.2106V10.2095C15.849 10.1987 15.8501 10.1879 15.851 10.177C15.8566 10.1155 15.8613 10.0536 15.865 9.99148C15.8657 9.98132 15.8663 9.97109 15.8669 9.96085V9.96039L15.8689 9.92203L15.8694 9.91343C15.8706 9.8875 15.8717 9.86156 15.8726 9.83562V9.83468L15.873 9.82453C15.8734 9.81601 15.8737 9.80742 15.8737 9.79882L15.8738 9.79539C15.8741 9.78734 15.8745 9.77906 15.8745 9.77085L15.8747 9.76382C15.8749 9.75562 15.8752 9.7475 15.8752 9.73929L15.8753 9.73234C15.8755 9.72195 15.8758 9.71148 15.8758 9.70109V9.66289ZM8.48735 15.5774C8.95625 14.8898 8.92297 14.3737 8.27969 13.7308C7.63626 13.0877 7.2618 12.1474 7.2618 12.1474C7.2618 12.1474 7.12204 11.6012 6.80329 11.6514C6.48454 11.7016 6.25071 12.5177 6.91813 13.0173C7.58548 13.5169 6.78532 13.8557 6.52845 13.3869C6.27157 12.918 5.57024 11.7127 5.20664 11.4822C4.84305 11.2516 4.58735 11.3809 4.67305 11.856C4.71563 12.0919 5.11157 12.4944 5.48149 12.8705C5.85681 13.2521 6.20531 13.6065 6.13078 13.7319C5.98289 13.9809 5.46204 13.4393 5.46204 13.4393C5.46204 13.4393 3.8311 11.9551 3.4761 12.3419C3.14875 12.6984 3.65352 13.0014 4.43134 13.4685C4.49743 13.5082 4.56556 13.5491 4.63532 13.5913C5.52524 14.1301 5.59445 14.2722 5.46813 14.476C5.42149 14.5513 5.1236 14.3725 4.75719 14.1526C4.13258 13.7775 3.30899 13.283 3.19267 13.7256C3.09204 14.1087 3.69797 14.3434 4.2475 14.5562C4.70531 14.7336 5.12407 14.8958 5.06243 15.1159C4.9986 15.3442 4.65259 15.1538 4.27438 14.9457C3.84978 14.712 3.38454 14.4561 3.23228 14.7449C2.94454 15.291 5.21743 15.9339 5.23618 15.9387C5.97056 16.1291 7.83555 16.5327 8.48735 15.5774ZM11.508 15.5774C11.0391 14.8898 11.0724 14.3737 11.7158 13.7308C12.3591 13.0877 12.7336 12.1474 12.7336 12.1474C12.7336 12.1474 12.8734 11.6012 13.1921 11.6514C13.5109 11.7016 13.7447 12.5177 13.0773 13.0173C12.4099 13.5169 13.2101 13.8557 13.467 13.3869C13.7239 12.918 14.4248 11.7127 14.7884 11.4822C15.152 11.2516 15.4078 11.3809 15.322 11.856C15.2795 12.0919 14.8835 12.4944 14.5136 12.8706C14.1383 13.2522 13.7898 13.6065 13.8642 13.7319C14.0121 13.9809 14.5334 13.439 14.5334 13.439C14.5334 13.439 16.1642 11.9548 16.5194 12.3416C16.8466 12.698 16.3419 13.0012 15.564 13.4683C15.4959 13.5091 15.428 13.5501 15.3601 13.5911C14.4702 14.1298 14.4009 14.2719 14.5272 14.4757C14.5739 14.5511 14.8718 14.3722 15.2381 14.1523C15.8628 13.7773 16.6864 13.2827 16.8027 13.7254C16.9034 14.1084 16.2974 14.3431 15.7479 14.556C15.2901 14.7334 14.8713 14.8955 14.9329 15.1157C14.9966 15.3439 15.3426 15.1535 15.7207 14.9454C16.1453 14.7117 16.6106 14.4556 16.7628 14.7447C17.0506 15.2911 14.7773 15.9334 14.759 15.938C14.0246 16.1291 12.1596 16.5327 11.508 15.5774Z" fill="#FFD21E"/>
<path fill-rule="evenodd" clip-rule="evenodd" d="M11.8787 8.01304C11.971 8.0457 12.0397 8.14507 12.105 8.23968C12.1933 8.36749 12.2755 8.48648 12.4016 8.41945C12.5503 8.34031 12.6723 8.2189 12.752 8.07046C12.8317 7.92202 12.8657 7.75333 12.8496 7.58562C12.8376 7.46021 12.7979 7.33904 12.7334 7.23084C12.6688 7.12263 12.5811 7.03007 12.4766 6.95985C12.372 6.88963 12.253 6.84349 12.1285 6.82475C12.0039 6.80601 11.8767 6.81514 11.7561 6.85148C11.6355 6.8878 11.5245 6.95041 11.4309 7.0348C11.3374 7.11919 11.2637 7.22326 11.2153 7.33952C11.1669 7.45579 11.1448 7.58136 11.1506 7.70718C11.1566 7.83304 11.1902 7.95593 11.2494 8.06718C11.3078 8.1771 11.4375 8.12523 11.5744 8.07046C11.6816 8.02757 11.7934 7.98288 11.8787 8.01304ZM7.865 8.01304C7.77266 8.0457 7.70398 8.14515 7.63867 8.23968C7.55039 8.36757 7.46812 8.48648 7.34211 8.41945C7.15504 8.32038 7.01158 8.15515 6.93967 7.95609C6.86777 7.75699 6.87259 7.53824 6.95319 7.3425C7.03378 7.14676 7.18438 6.98805 7.37562 6.8973C7.56687 6.80655 7.78506 6.79027 7.98766 6.85163C8.14898 6.90021 8.29227 6.99552 8.39945 7.1255C8.50664 7.25549 8.57281 7.41433 8.58977 7.58195C8.60664 7.74956 8.57344 7.91843 8.49437 8.06718C8.43586 8.1771 8.30617 8.12523 8.1693 8.07054C8.06195 8.02757 7.95031 7.98288 7.865 8.01304ZM11.2577 11.6655C11.8939 11.1643 12.1276 10.346 12.1276 9.84195C12.1276 9.44351 11.8595 9.5689 11.4304 9.7814L11.4062 9.79335C11.0123 9.98843 10.4879 10.2482 9.91227 10.2482C9.33656 10.2482 8.81219 9.98843 8.41836 9.79327C7.97531 9.57382 7.69742 9.43616 7.69742 9.84202C7.69742 10.362 7.94602 11.2159 8.62836 11.7119C8.71844 11.5291 8.84523 11.3669 9.00086 11.2354C9.15641 11.1038 9.3375 11.0058 9.53266 10.9473C9.60078 10.927 9.67094 11.0443 9.74273 11.1644C9.81203 11.2802 9.88289 11.3986 9.95492 11.3986C10.0317 11.3986 10.1071 11.2819 10.1808 11.168C10.2577 11.0488 10.3328 10.9328 10.4054 10.956C10.7706 11.0733 11.0762 11.3276 11.2577 11.6655Z" fill="#32343D"/>
<path d="M11.2576 11.6654C10.9262 11.9265 10.4859 12.1016 9.91234 12.1016C9.37351 12.1016 8.95211 11.947 8.62836 11.7118C8.71844 11.5291 8.84523 11.3668 9.00086 11.2353C9.1564 11.1037 9.3375 11.0057 9.53265 10.9473C9.6664 10.9073 9.8082 11.3985 9.95492 11.3985C10.112 11.3985 10.2633 10.9105 10.4054 10.9559C10.7705 11.0733 11.076 11.3276 11.2576 11.6654Z" fill="#FF323D"/>
<path fill-rule="evenodd" clip-rule="evenodd" d="M6.34375 8.72193C6.26806 8.77256 6.18104 8.80373 6.09041 8.81263C5.99977 8.82162 5.90834 8.80802 5.82422 8.7731C5.75698 8.74537 5.69587 8.70459 5.64444 8.6531C5.59299 8.6017 5.55222 8.5406 5.52445 8.47334C5.48961 8.3892 5.47605 8.29779 5.48501 8.20717C5.49397 8.11654 5.52515 8.02951 5.57578 7.95381C5.63662 7.86271 5.72311 7.79172 5.82431 7.7498C5.92552 7.70788 6.03687 7.69691 6.1443 7.7183C6.25174 7.73968 6.35041 7.79245 6.42784 7.8699C6.50527 7.9474 6.55798 8.04615 6.5793 8.15357C6.60065 8.26099 6.58966 8.37232 6.54776 8.47349C6.50584 8.57466 6.4348 8.66107 6.34375 8.72193ZM14.2666 8.72193C14.1909 8.77256 14.1039 8.80373 14.0133 8.81263C13.9226 8.82162 13.8312 8.80802 13.747 8.7731C13.6798 8.74529 13.6187 8.70459 13.5673 8.6531C13.5159 8.6017 13.4751 8.5406 13.4473 8.47334C13.4125 8.3892 13.399 8.29779 13.4079 8.20717C13.4169 8.11654 13.448 8.02951 13.4986 7.95381C13.5441 7.88568 13.6041 7.82857 13.6744 7.78645C13.7446 7.74434 13.8233 7.71835 13.9048 7.71034C13.9863 7.70233 14.0686 7.7125 14.1456 7.74012C14.2227 7.76774 14.2927 7.81212 14.3506 7.87006C14.4281 7.94748 14.4809 8.04615 14.5022 8.15357C14.5236 8.26099 14.5126 8.37232 14.4706 8.47349C14.4287 8.57466 14.3577 8.66107 14.2666 8.72193Z" fill="#FFAD03"/>
</svg>
