<svg width="20" height="20" viewBox="0 0 20 20" fill="none" xmlns="http://www.w3.org/2000/svg">
<g clip-path="url(#clip0_3775_11211)">
<path fill-rule="evenodd" clip-rule="evenodd" d="M14.165 6.83771L9.99913 4.43234L5.83413 6.83684L10 9.24221L14.165 6.83771ZM5.17876 7.97346V12.7825L9.34376 15.187V10.3788L5.17876 7.97346ZM10.6563 15.1861L14.8195 12.7825V7.97521L10.6563 10.3788V15.1861ZM9.34288 3.29571C9.54241 3.18052 9.76875 3.11987 9.99913 3.11987C10.2295 3.11987 10.4559 3.18052 10.6554 3.29571L15.4766 6.07821C15.6763 6.19348 15.842 6.3593 15.9573 6.55899C16.0725 6.75868 16.133 6.98518 16.1329 7.21571V12.7825C16.1329 13.0129 16.0722 13.2392 15.957 13.4387C15.8418 13.6382 15.6761 13.8039 15.4766 13.9191L10.6554 16.7016C10.4559 16.8168 10.2295 16.8775 9.99913 16.8775C9.76875 16.8775 9.54241 16.8168 9.34288 16.7016L4.52163 13.9191C4.32198 13.8039 4.15622 13.638 4.04102 13.4383C3.92581 13.2386 3.86524 13.0122 3.86539 12.7816V7.21659C3.86524 6.98605 3.92581 6.75955 4.04102 6.55987C4.15622 6.36017 4.32198 6.19435 4.52163 6.07909L9.34376 3.29659L9.34288 3.29571Z" fill="currentColor"/>
</g>
<defs>
<clipPath id="clip0_3775_11211">
<rect width="14" height="14" fill="white" transform="translate(3 3)"/>
</clipPath>
</defs>
</svg>
