<svg width="20" height="20" viewBox="0 0 20 20" fill="none" xmlns="http://www.w3.org/2000/svg">
<path d="M15.7273 3.63635H13.1818V6.18181H15.7273V3.63635Z" fill="black"/>
<path d="M17 3.63635H14.4545V6.18181H17V3.63635Z" fill="#F7D046"/>
<path d="M5.54545 3.63635H3V6.18181H5.54545V3.63635Z" fill="black"/>
<path d="M5.54545 6.18176H3V8.72722H5.54545V6.18176Z" fill="black"/>
<path d="M5.54545 8.72729H3V11.2727H5.54545V8.72729Z" fill="black"/>
<path d="M5.54545 11.2727H3V13.8182H5.54545V11.2727Z" fill="black"/>
<path d="M5.54545 13.8181H3V16.3636H5.54545V13.8181Z" fill="black"/>
<path d="M6.81818 3.63635H4.27273V6.18181H6.81818V3.63635Z" fill="#F7D046"/>
<path d="M17 6.18176H14.4545V8.72722H17V6.18176Z" fill="#F2A73B"/>
<path d="M6.81818 6.18176H4.27273V8.72722H6.81818V6.18176Z" fill="#F2A73B"/>
<path d="M13.1818 6.18176H10.6364V8.72722H13.1818V6.18176Z" fill="black"/>
<path d="M14.4545 6.18176H11.9091V8.72722H14.4545V6.18176Z" fill="#F2A73B"/>
<path d="M9.36363 6.18176H6.81818V8.72722H9.36363V6.18176Z" fill="#F2A73B"/>
<path d="M11.9091 8.72729H9.36364V11.2727H11.9091V8.72729Z" fill="#EE792F"/>
<path d="M14.4545 8.72729H11.9091V11.2727H14.4545V8.72729Z" fill="#EE792F"/>
<path d="M9.36363 8.72729H6.81818V11.2727H9.36363V8.72729Z" fill="#EE792F"/>
<path d="M10.6364 11.2727H8.09091V13.8182H10.6364V11.2727Z" fill="black"/>
<path d="M11.9091 11.2727H9.36364V13.8182H11.9091V11.2727Z" fill="#EB5829"/>
<path d="M17 8.72729H14.4545V11.2727H17V8.72729Z" fill="#EE792F"/>
<path d="M6.81818 8.72729H4.27273V11.2727H6.81818V8.72729Z" fill="#EE792F"/>
<path d="M15.7273 11.2727H13.1818V13.8182H15.7273V11.2727Z" fill="black"/>
<path d="M17 11.2727H14.4545V13.8182H17V11.2727Z" fill="#EB5829"/>
<path d="M15.7273 13.8181H13.1818V16.3636H15.7273V13.8181Z" fill="black"/>
<path d="M6.81818 11.2727H4.27273V13.8182H6.81818V11.2727Z" fill="#EB5829"/>
<path d="M17 13.8181H14.4545V16.3636H17V13.8181Z" fill="#EA3326"/>
<path d="M6.81818 13.8181H4.27273V16.3636H6.81818V13.8181Z" fill="#EA3326"/>
</svg>
