<svg width="20" height="20" viewBox="0 0 20 20" fill="none" xmlns="http://www.w3.org/2000/svg">
<path d="M16.8527 8.5487C17.2157 7.4592 17.0907 6.2657 16.5102 5.2747C15.6372 3.7547 13.8822 2.9727 12.1682 3.3407C11.4057 2.4817 10.3102 1.9932 9.16173 2.0002C7.40973 1.9962 5.85523 3.1242 5.31623 4.7912C4.19073 5.0217 3.21923 5.7262 2.65073 6.7247C1.77123 8.2407 1.97173 10.1517 3.14673 11.4517C2.78373 12.5412 2.90873 13.7347 3.48923 14.7257C4.36223 16.2457 6.11723 17.0277 7.83123 16.6597C8.59323 17.5187 9.68923 18.0072 10.8377 17.9997C12.5907 18.0042 14.1457 16.8752 14.6847 15.2067C15.8102 14.9762 16.7817 14.2717 17.3502 13.2732C18.2287 11.7572 18.0277 9.8477 16.8532 8.5477L16.8527 8.5487ZM10.8387 16.9542C10.1372 16.9552 9.45773 16.7097 8.91923 16.2602C8.94373 16.2472 8.98623 16.2237 9.01373 16.2067L12.1997 14.3667C12.3627 14.2742 12.4627 14.1007 12.4617 13.9132V9.4217L13.8082 10.1992C13.8227 10.2062 13.8322 10.2202 13.8342 10.2362V13.9557C13.8322 15.6097 12.4927 16.9507 10.8387 16.9542ZM4.39673 14.2027C4.04523 13.5957 3.91873 12.8842 4.03923 12.1937C4.06273 12.2077 4.10423 12.2332 4.13373 12.2502L7.31973 14.0902C7.48123 14.1847 7.68123 14.1847 7.84323 14.0902L11.7327 11.8442V13.3992C11.7337 13.4152 11.7262 13.4307 11.7137 13.4407L8.49323 15.3002C7.05873 16.1262 5.22673 15.6352 4.39723 14.2027H4.39673ZM3.55823 7.2482C3.90823 6.6402 4.46073 6.1752 5.11873 5.9337C5.11873 5.9612 5.11723 6.0097 5.11723 6.0437V9.7242C5.11623 9.9112 5.21623 10.0847 5.37873 10.1772L9.26823 12.4227L7.92173 13.2002C7.90823 13.2092 7.89123 13.2107 7.87623 13.2042L4.65523 11.3432C3.22373 10.5142 2.73273 8.6827 3.55773 7.2487L3.55823 7.2482ZM14.6212 9.8227L10.7317 7.5767L12.0782 6.7997C12.0917 6.7907 12.1087 6.7892 12.1237 6.7957L15.3447 8.6552C16.7787 9.4837 17.2702 11.3182 16.4417 12.7522C16.0912 13.3592 15.5392 13.8242 14.8817 14.0662V10.2757C14.8832 10.0887 14.7837 9.9157 14.6217 9.8227H14.6212ZM15.9612 7.8057C15.9377 7.7912 15.8962 7.7662 15.8667 7.7492L12.6807 5.9092C12.5192 5.8147 12.3192 5.8147 12.1572 5.9092L8.26773 8.1552V6.6002C8.26673 6.5842 8.27423 6.5687 8.28673 6.5587L11.5072 4.7007C12.9417 3.8732 14.7757 4.3657 15.6027 5.8007C15.9522 6.4067 16.0787 7.1162 15.9602 7.8057H15.9612ZM7.53573 10.5772L6.18873 9.7997C6.17423 9.7927 6.16473 9.7787 6.16273 9.7627V6.0432C6.16373 4.3872 7.50723 3.0452 9.16323 3.0462C9.86373 3.0462 10.5417 3.2922 11.0802 3.7402C11.0557 3.7532 11.0137 3.7767 10.9857 3.7937L7.79973 5.6337C7.63673 5.7262 7.53673 5.8992 7.53773 6.0867L7.53573 10.5762V10.5772ZM8.26723 9.0002L9.99973 7.9997L11.7322 8.9997V11.0002L9.99973 12.0002L8.26723 11.0002V9.0002Z" fill="currentColor"/>
</svg>
