<svg width="20" height="20" viewBox="0 0 20 20" fill="none" xmlns="http://www.w3.org/2000/svg">
<path fill-rule="evenodd" clip-rule="evenodd" d="M4.75142 5.38453C4.77522 5.02288 5.0877 4.749 5.44935 4.7728C10.6915 5.11784 14.882 9.30835 15.2271 14.5505C15.2509 14.9122 14.977 15.2246 14.6154 15.2484C14.2536 15.2722 13.9412 14.9984 13.9174 14.6367C13.6156 10.0515 9.94835 6.38427 5.36315 6.08247C5.00149 6.05867 4.72761 5.74619 4.75142 5.38453ZM4.75 14.3748C4.75 13.8916 5.14176 13.4998 5.625 13.4998C6.10825 13.4998 6.5 13.8916 6.5 14.3748C6.5 14.858 6.10825 15.2498 5.625 15.2498C5.14176 15.2498 4.75 14.858 4.75 14.3748ZM5.48419 9.16837C5.12432 9.12533 4.7977 9.38218 4.75466 9.74205C4.71161 10.1019 4.96846 10.4285 5.32833 10.4716C7.52339 10.7341 9.26567 12.4764 9.52818 14.6715C9.57122 15.0313 9.89784 15.2882 10.2577 15.2451C10.6176 15.2021 10.8744 14.8754 10.8314 14.5156C10.497 11.7192 8.28061 9.50281 5.48419 9.16837Z" fill="currentColor"/>
</svg>
